# xmcd
#
# Track frame offsets:
#	150
#	21018
#	37261
#	54215
#	67209
#	78506
#	92681
#	117811
#	130738
#	145964
#	163355
#	183055
#	193023
#	208430
#	225312
#	243902
#	259611
#	281942
#	294158
#
# Disc length: 4102 seconds
#
# Revision: 0
# Processed by: cddbd v1.5.2PL0 Copyright (c) Steve Scherf et al.
# Submitted via: EZCDAudioConverter 2.1.7.1
#
DISCID=17100413
DTITLE=V/A - Too Slow To Disco V1
DYEAR=1900
DGENRE=
TTITLE0=Ned Doheny - Get It Up For Love
TTITLE1=Micky Denne and Ken Gold - Let's Put Our Love Back Together
TTITLE2=Rupert Holmes - Deco Lady
TTITLE3=White Horse - Over And Done With
TTITLE4=Browning Bryant - Liverpool Fool
TTITLE5=Nicolette Larson - Lotta Love
TTITLE6=Alessi Brothers - Do You Feel It?
TTITLE7=Photoglo - Steal Away
TTITLE8=Brian Elliot - Room To Grow
TTITLE9=Chicago - Saturday In The Park
TTITLE10=Don Brown - Shut The Door
TTITLE11=Matthew Larkin Cassell - Rendezvous
TTITLE12=Pages - If I Saw You Again
TTITLE13=Doobie Brothers - Losin' End
TTITLE14=Fleetwood Mac - Sugar Daddy
TTITLE15=Robbie Dupree - Steal Away
TTITLE16=David Batteau - Spaceship Earth
TTITLE17=Tony Joe White - I've Got A Thing About You Baby
TTITLE18=Jan Hammer Group - Don't You Know
EXTD=
EXTT0=
EXTT1=
EXTT2=
EXTT3=
EXTT4=
EXTT5=
EXTT6=
EXTT7=
EXTT8=
EXTT9=
EXTT10=
EXTT11=
EXTT12=
EXTT13=
EXTT14=
EXTT15=
EXTT16=
EXTT17=
EXTT18=
PLAYORDER=
